<svg id="Layer_1" data-name="Layer 1" xmlns="http://www.w3.org/2000/svg" width="49.4mm" height="55.58mm" viewBox="0 0 140.03 157.54"><defs><style>.cls-1{fill:#fff;}.cls-2{fill:#1d1d1b;}</style></defs><rect class="cls-1" width="140.03" height="157.54"/><path class="cls-2" d="M57.7,117.62a1.73,1.73,0,0,0-1.61,1.12l-3.3,8.33-.29,1-.26-1L49.7,119s0-.06,0-.07v0A1.74,1.74,0,0,0,48,117.7H43.93a1.74,1.74,0,0,0-1.66,1.73,4.27,4.27,0,0,0,.2.89L43,122l-2,5.07-.32.94-.26-1L37.88,119s0-.06,0-.07v0a1.73,1.73,0,0,0-1.62-1.16H32.11a1.75,1.75,0,0,0-1.66,1.73,3,3,0,0,0,.21.89l6.15,18.33a1.72,1.72,0,0,0,3.32.1l4.31-10.88.31-1,.26,1,3.63,10.79A1.71,1.71,0,0,0,50.31,140,1.75,1.75,0,0,0,52,138.7l7.29-18.58a1.91,1.91,0,0,0,.17-.75,1.74,1.74,0,0,0-1.74-1.75"/><path class="cls-2" d="M88.36,117.62a1.75,1.75,0,0,0-1.63,1.12l-3.28,8.33-.31,1-.24-1L80.34,119s0-.06,0-.07v0a1.77,1.77,0,0,0-1.65-1.16h-4.1a1.73,1.73,0,0,0-1.65,1.73,3,3,0,0,0,.2.89l.53,1.69-2,5.07-.33.94-.24-1L68.53,119s0-.06,0-.07v0a1.7,1.7,0,0,0-1.61-1.16H62.76a1.74,1.74,0,0,0-1.66,1.73,3.71,3.71,0,0,0,.2.89l6.17,18.33A1.71,1.71,0,0,0,69.14,140a1.75,1.75,0,0,0,1.65-1.21l4.3-10.88.3-1,.28,1,3.61,10.79a1.73,1.73,0,0,0,3.35,0l7.29-18.58a1.73,1.73,0,0,0-1.56-2.5"/><path class="cls-2" d="M108.27,117.66H93.9a1.49,1.49,0,0,0-1.5,1.5h0v19.09h0A1.63,1.63,0,0,0,94,139.82h4.07a1.64,1.64,0,0,0,1.6-1.61v-8.92h5.85a1.58,1.58,0,0,0,0-3.15H99.68V121h8.67a1.69,1.69,0,0,0-.08-3.37"/><path class="cls-2" d="M86,56.82c2.61,2.93,2.89,11.65,9.46,8.18,4-2.08,3.9-10.88-1.37-14-4.26-2.52-6.6.88-8.14,5a.77.77,0,0,0,0,.82"/><path class="cls-2" d="M75.77,55.43C73,57.71,71.13,64,66.08,61.83,62,59.75,61.61,51.66,68.64,47.92c4.91-2.25,7.4,2.22,7.43,7a1,1,0,0,1-.3.55"/><path class="cls-2" d="M82.55,71.36c2.71-.28,2.1-2.8,0-3.43A24.93,24.93,0,0,0,76,67.06c-3.49.08-3.4,2.75-1.59,3.2a5.66,5.66,0,0,1,3.45,2.17c1.08,2.1.6-.63,4.69-1.07"/><path class="cls-2" d="M95.35,26.32c3.41-5.68,9.34-4.58,12.31-1.75,3.27,3.08,3.8,6.62,2.54,9.12-1.7,3.35-6.06,7.42-8.9,3.48a16.32,16.32,0,0,0-5.37-4.41c-2.24-.94-2.66-3-.58-6.44"/><path class="cls-2" d="M82.78,77.27c-1.48,3.93-9.19,2.58-9.44-1.22,0-.15.21-.12.3-.1a40.88,40.88,0,0,0,8.91,1.18c.08,0,.26,0,.23.14m26.14-25.93c-.31-1-.81-.94-.78-.11.27,10.34-5.9,21.42-19.12,21.49-3.38,0-2.37,5.42-8.53,2.7-4.45-3-7,2.91-10.16-3.44a4.1,4.1,0,0,0-3.08-2.9c-13-3.24-17.21-21.2-5.71-35.7,2.28,1.35,3.11,1.56,5.53-.66a17.05,17.05,0,0,1,4.55-2.89c2.77-1.06,4.27-2.24,1.87-7.51-3.06-6.85-9.35-4.92-12.22-2.55-3.25,2.68-5.53,7-1.35,12.07-11.69,7.88-13.69,17.57-13.42,26,.27,9-2,8.19.84,17.31.25.8-.31.78-.74.52-12.18-7.8-18.77-31.59.22-44.71.43-.39.25-.89-1.31,0C29.07,39.67,27.56,56.51,30.29,67.86c1.33,5.49-.7,6.51,1.43,13.73,4.9,15,9.07,16.23,15,16.67,10.73,0,3.45-5.92,3.84-13.35,0-.43.54-.65.84.25,5.9,13.24,10.07,25.28,25.58,24.16,9-1.17,4-5.63,3.46-8.16-6.61-21.92,9.42-27.09,4.88-5.72-3,12.25,6.48,11,13.14,6.63,6.88-4.52,15.48-34.32,10.5-50.73"/><path class="cls-2" d="M45.48,100.4a3.45,3.45,0,1,0,3.43,3.44,3.45,3.45,0,0,0-3.43-3.44m2.87,3.44A2.87,2.87,0,1,1,45.48,101a2.87,2.87,0,0,1,2.87,2.86"/><path class="cls-2" d="M46.46,104.38a.86.86,0,0,1-.9.7,1.15,1.15,0,0,1-1.08-1.25,1.08,1.08,0,0,1,1.08-1.22.87.87,0,0,1,.9.68h.48a1.32,1.32,0,0,0-1.39-1.19,1.58,1.58,0,0,0-1.62,1.73,1.62,1.62,0,0,0,1.63,1.74A1.41,1.41,0,0,0,47,104.38Z"/><path class="cls-2" d="M106,108.61a3.44,3.44,0,1,0,3.44,3.44,3.43,3.43,0,0,0-3.44-3.44m2.87,3.44a2.88,2.88,0,1,1-2.87-2.86,2.87,2.87,0,0,1,2.87,2.86"/><path class="cls-2" d="M105.37,111.86v-1H106c.34,0,.7.09.7.48s-.36.53-.79.53Zm0,.43h.56l.87,1.4h.54l-.93-1.44a.84.84,0,0,0,.85-.88c0-.65-.38-.93-1.14-.93h-1.26v3.25h.51Z"/></svg>